<svg width="900" height="700" viewBox="0 0 900 700" fill="none" xmlns="http://www.w3.org/2000/svg">
  <rect width="900" height="700" rx="36" fill="#FFF7ED"/>
  <circle cx="740" cy="138" r="118" fill="#FDBA74"/>
  <circle cx="130" cy="590" r="160" fill="#86EFAC"/>
  <rect x="126" y="126" width="648" height="448" rx="224" fill="#1F2937"/>
  <rect x="168" y="166" width="564" height="368" rx="184" fill="#FFF1E6"/>
  <rect x="210" y="228" width="210" height="196" rx="98" transform="rotate(-10 210 228)" fill="#FB923C"/>
  <rect x="274" y="252" width="210" height="196" rx="98" transform="rotate(8 274 252)" fill="#F97316"/>
  <rect x="420" y="220" width="216" height="206" rx="103" transform="rotate(10 420 220)" fill="#EA580C"/>
  <rect x="218" y="270" width="188" height="28" rx="14" fill="#14532D" fill-opacity=".8"/>
  <rect x="244" y="322" width="170" height="26" rx="13" fill="#FDE68A"/>
  <rect x="454" y="280" width="182" height="28" rx="14" fill="#14532D" fill-opacity=".7"/>
  <rect x="428" y="330" width="176" height="28" rx="14" fill="#FDE68A"/>
  <circle cx="662" cy="482" r="58" fill="#22C55E"/>
  <circle cx="662" cy="482" r="34" fill="#BBF7D0"/>
  <circle cx="566" cy="476" r="58" fill="#F97316"/>
  <circle cx="566" cy="476" r="34" fill="#FED7AA"/>
  <text x="450" y="100" text-anchor="middle" fill="#1F2937" font-size="42" font-family="Arial Black, Arial" font-weight="900">CHILLINGTON BITES</text>
</svg>
